<?xml version="1.0" encoding="UTF-8" standalone="no"?>
<svg
   width="512"
   height="512"
   version="1.1"
   viewBox="0 0 512 512"
   id="svg8"
   sodipodi:docname="cartmates.svg"
   inkscape:version="1.4.4 (dcaf3e7d9e, 2026-05-05)"
   xmlns:inkscape="http://www.inkscape.org/namespaces/inkscape"
   xmlns:sodipodi="http://sodipodi.sourceforge.net/DTD/sodipodi-0.dtd"
   xmlns="http://www.w3.org/2000/svg"
   xmlns:svg="http://www.w3.org/2000/svg">
  <defs
     id="defs8" />
  <sodipodi:namedview
     id="namedview8"
     pagecolor="#505050"
     bordercolor="#ffffff"
     borderopacity="1"
     inkscape:showpageshadow="0"
     inkscape:pageopacity="0"
     inkscape:pagecheckerboard="1"
     inkscape:deskcolor="#505050"
     inkscape:zoom="1.0081528"
     inkscape:cx="297.07798"
     inkscape:cy="341.71407"
     inkscape:window-width="1920"
     inkscape:window-height="1142"
     inkscape:window-x="0"
     inkscape:window-y="29"
     inkscape:window-maximized="1"
     inkscape:current-layer="svg8" />
  <g
     transform="matrix(0.38934258,0,0,0.38934258,-45.951045,-55.549541)"
     id="g8">
    <path
       d="m 882.17,574.8 c -9.9725,-1.4529 -16.683,-3.8263 -24.539,-8.6799 -12.272,-7.5811 -16.464,-12.166 -22.573,-24.686 -9.3256,-19.111 -10.812,-36.822 -4.4694,-53.26 6.6764,-17.304 19.184,-31.178 34.392,-38.15 6.7772,-3.1068 21.812,-6.1122 30.578,-6.1122 4.3646,0 17.446,2.4964 20.572,3.926 1.1,0.50304 4.475,2.0348 7.5,3.404 7.386,3.343 14.432,8.9626 20.303,16.193 5.7835,7.1225 7.5369,10.394 11.242,20.977 3.3586,9.5936 4.3326,23.371 2.4437,34.569 -1.8155,10.763 -9.481,25.32 -16.999,32.28 -11.929,11.044 -22.661,16.621 -36.99,19.22 -8.3897,1.5222 -12.753,1.5869 -21.461,0.31821 z"
       id="path1"
       style="fill:#df8e1d;fill-opacity:1;stroke:none" />
    <path
       d="m 665.63,595.89 c -8.2832,-1.111 -17.386,-3.8125 -22.5,-6.6776 -2.2,-1.2325 -5.35,-2.867 -7,-3.6321 -3.9847,-1.8477 -14.599,-12.289 -18.05,-17.755 -9.31,-14.748 -13.18,-32.65 -10.011,-46.313 0.85874,-3.7028 1.5614,-7.6526 1.5614,-8.7774 0,-2.5571 5.3091,-13.856 9.3179,-19.831 7.8432,-11.689 24.119,-22.639 39.326,-26.457 7.003,-1.7583 22.516,-2.0294 30.415,-0.53148 8.356,1.5847 21.271,8.628 29.13,15.886 5.9692,5.513 7.6761,7.9314 12.351,17.5 5.5361,11.332 7.0477,17.209 8.1634,31.738 1.1452,14.913 -6.2563,33.356 -18.252,45.481 -3.8766,3.9185 -8.6016,7.9122 -10.5,8.875 -1.8984,0.96277 -4.1317,2.3439 -4.9631,3.0691 -2.6656,2.3253 -19.274,7.3213 -25.988,7.8175 -3.575,0.2642 -9.425,0.088 -13,-0.39146 z"
       id="path2"
       style="fill:#179299;fill-opacity:1;stroke:none" />
    <path
       d="m 753.4,714.81 c -23.231,-36.447 -8.8783,-71.733 -0.99218,-86.111 -1.7852,-0.26058 -4.2961,-1.0402 -8.043,-2.3848 -10.785,-3.8702 -16.152,-5.1857 -27.736,-6.8047 -23.605,-3.2989 -32.458,-3.1235 -54.994,1.0898 -4.125,0.7712 -9.075,1.6594 -11,1.9746 -1.925,0.3152 -3.95,0.91557 -4.5,1.334 -0.55,0.41843 -3.7,1.5202 -7,2.4492 -3.3,0.92903 -7.9125,2.5587 -10.25,3.6211 -11.743,5.3368 -19.902,9.7259 -23.844,12.826 -1.4718,1.1577 -3.252,2.1055 -3.957,2.1055 -0.70499,0 -1.4319,0.35521 -1.6152,0.78906 -0.18333,0.43385 -3.7253,3.3257 -7.8711,6.4277 -11.372,8.5089 -27.307,26.048 -35.713,39.311 -7.1212,11.235 -16.514,30.829 -19.643,40.973 -1.0177,3.3 -2.4704,7.477 -3.2285,9.2832 -0.7581,1.8062 -1.3761,4.0562 -1.3711,5 0.005,0.9438 -0.65741,4.6418 -1.4726,8.2168 -3.6699,16.093 -4.9779,26.896 -4.9629,41 0.0143,13.413 0.20717,14.912 2.5625,20 1.4005,3.025 3.7559,6.9314 5.2363,8.6816 2.6937,3.1846 12.22,8.4034 19.994,10.953 5.5982,1.8362 14.654,1.0462 23.184,-2.0234 7.2447,-2.6071 12.79,-7.4493 18.039,-15.754 2.8315,-4.4799 5.1064,-13.528 5.2441,-20.857 0.17799,-9.4718 1.2507,-19.324 2.6152,-24 0.72221,-2.475 2.1286,-7.425 3.125,-11 2.2585,-8.1036 8.1755,-20.939 12.865,-27.908 1.959,-2.911 3.5625,-5.5341 3.5625,-5.8301 0,-0.84033 11.149,-14.26 11.863,-14.279 0.3501,-0.01 3.1117,-2.3263 6.1367,-5.1484 10.514,-9.8087 33.25,-17.813 50.646,-17.83 5.1043,-0.005 24.241,3.5799 30.354,5.6855 5.7417,1.9778 15.306,6.8201 20.68,10.471 2.2991,1.5619 4.6254,2.8398 5.168,2.8398 0.5426,0 1.135,0.3375 1.3184,0.75 0.23825,0.53608 2.569,2.221 5.5996,4.1504 z"
       id="path3"
       style="fill:#179299;fill-opacity:1;stroke:none" />
    <path
       d="m 854.93,595.5 c -12.425,-0.0108 -24.698,0.40024 -28.295,1.2422 -23.959,5.6082 -27.156,6.683 -47,15.805 -5.9456,2.733 -21.026,12.487 -23.02,14.889 -0.9399,1.1325 -2.0374,1.5823 -4.207,1.2656 -7.8862,14.378 -22.239,49.664 0.99218,86.111 2.4811,1.5796 5.4314,3.323 8.0859,4.7344 7.2222,3.8401 12.364,4.6341 21.076,3.252 9.1143,-1.446 12.634,-3.1955 19.594,-9.7324 7.5717,-7.1116 11.479,-16.165 11.479,-26.605 0,-6.7423 1.2652,-8.7312 7.5,-11.785 8.4782,-4.1528 30.621,-7.3139 44,-6.2832 7.9541,0.61275 11.538,1.3028 21.5,4.1406 8.137,2.318 20.781,11.201 30.248,21.25 9.6849,10.28 15.269,19.586 20.478,34.129 5.3338,14.89 6.3277,19.589 7.3418,34.709 2.5446,37.938 2.0071,35.758 11.098,45.043 7.6128,7.7756 13.798,10.462 24.059,10.447 13.963,-0.0201 23.87502,-4.2536 33.12902,-14.146 5.1986,-5.5578 6.4766,-10.095 7.3418,-26.053 1.185,-21.858 -5.5998,-62.119 -13.988,-83 -0.7732,-1.925 -1.9773,-4.9905 -2.6757,-6.8125 -5.05562,-13.189 -14.58302,-27.614 -29.95502,-45.361 -6.6331,-7.6577 -23.329,-20.282 -37.299,-28.201 -11.403,-6.4646 -33.421,-13.938 -52.277,-17.744 -4.2043,-0.84871 -16.78,-1.2822 -29.205,-1.293 z"
       id="path4"
       style="fill:#df8e1d;fill-opacity:1;stroke:none" />
    <g
       id="g7">
      <path
         d="m 555.63,1007.4 c -13.921,-1.1114 -18.766,-1.9688 -30.994,-5.4844 -7.9716,-2.2919 -15.622,-4.7743 -17,-5.5165 -1.3784,-0.7421 -7.2312,-3.4511 -13.006,-6.02 -18.598,-8.2728 -31.904,-17.264 -48.298,-32.638 -6.0513,-5.6746 -13.185,-13.242 -15.853,-16.818 -2.6681,-3.575 -5.863,-7.8023 -7.0998,-9.3941 -10.637,-13.689 -23.756,-42.653 -30.848,-68.106 -1.0728,-3.85 -2.3539,-8.35 -2.847,-10 -0.49308,-1.65 -2.2799,-8.175 -3.9706,-14.5 -1.6908,-6.325 -4.684,-17.35 -6.6516,-24.5 -1.9676,-7.15 -4.0271,-14.8 -4.5766,-17 -0.54947,-2.2 -2.274,-8.275 -3.8322,-13.5 -1.5582,-5.225 -4.2806,-14.675 -6.0495,-21 -4.1756,-14.93 -8.5149,-29.615 -11.524,-39 -1.3226,-4.125 -3.7299,-12.45 -5.3497,-18.5 -1.6198,-6.05 -3.6229,-13.25 -4.4514,-16 -0.8285,-2.75 -2.702,-9.5 -4.1634,-15 -1.4614,-5.5 -4.0076,-14.5 -5.6583,-20 -3.4894,-11.626 -4.8878,-16.554 -7.236,-25.5 -1.808,-6.8876 -3.9666,-14.592 -6.1636,-22 -8.2293,-27.747 -13.427,-50.119 -13.427,-57.794 0,-17.47 11.346,-34.633 28.555,-43.194 6.4353,-3.2015 7.7673,-3.4832 18.152,-3.8398 16.62,-0.57065 25.636,2.6846 36.087,13.029 8.1937,8.1102 12.17,16.017 17.248,34.299 1.2222,4.4 3.2701,11.6 4.551,16 1.2809,4.4 2.7622,9.8 3.2917,12 0.5295,2.2 2.3902,8.95 4.1348,15 4.8098,16.68 8.6692,30.727 12.089,44 1.7004,6.6 3.9893,14.7 5.0864,18 1.927,5.796 8.1884,26.861 9.8093,33 0.78177,2.9612 3.2171,11.461 8.8816,31 5.2721,18.185 8.7385,30.81 15.65,57 3.3576,12.723 7.3767,26.55 8.0192,27.59 0.72318,1.1701 1.5612,4.1709 3.8847,13.91 3.029,12.697 10.536,36.931 13.165,42.5 5.3389,11.308 13.287,21.471 24.282,31.048 11.383,9.9154 25.092,16.354 41.572,19.525 3.0493,0.5868 83.11,0.9465 207.89,0.934 l 202.93,-0.02 9.3546,-2.5484 c 11.907,-3.2438 29.406,-11.465 33.925,-15.938 1.1111,-1.1 3.5778,-3.3546 5.4814,-5.0102 4.3367,-3.7715 11.484,-12.228 14.064,-16.639 3.5946,-6.1464 10.897,-21.797 10.897,-23.355 0,-1.5745 2.4439,-10.801 6.6205,-24.995 1.2947,-4.4 2.7668,-9.8 3.2715,-12 1.9098,-8.3257 6.2813,-25.266 8.2577,-32 1.1299,-3.85 2.6416,-9.475 3.3592,-12.5 0.7176,-3.025 2.056,-7.975 2.9741,-11 0.9181,-3.025 2.9938,-10.45 4.6126,-16.5 2.8582,-10.682 6.3051,-22.769 9.4109,-33 3.4201,-11.267 12.865,-44.882 16.155,-57.5 4.8046,-18.424 4.8124,-18.454 7.3315,-27.5 1.2252,-4.4 2.8082,-10.25 3.5178,-13 0.7096,-2.75 1.96,-7.25 2.7787,-10 3.5611,-11.962 6.7785,-23.645 9.2253,-33.5 0.7511,-3.025 3.2153,-12.025 5.4761,-20 2.2608,-7.975 5.5053,-19.675 7.2102,-26 3.1564,-11.711 8.6162,-29.078 10.846,-34.5 0.6785,-1.65 1.8668,-4.575 2.6406,-6.5 0.7739,-1.925 1.8135,-4.175 2.3103,-5 0.4968,-0.825 1.8921,-3.525 3.1007,-6 2.1393,-4.381 8.5485,-15.493 10.094,-17.5 11.493,-14.929 18.729,-22.808 32.143,-35 4.8407,-4.4 10.106,-8.7234 11.702,-9.6077 1.5951,-0.88422 4.5172,-2.841 6.4935,-4.3483 3.7549,-2.864 17.395,-9.8749 25.969,-13.348 27.079,-10.969 44.589,-14.194 77.082,-14.195 19.201,-10e-4 25.085,1.4436 35.918,8.8189 5.7533,3.9168 7.8087,6.1066 11.541,12.296 2.4974,4.1416 5.3099,9.9116 6.25,12.822 2.3571,7.2983 2.2935,22.007 -0.1288,29.79 -2.2311,7.1683 -8.4937,16.634 -14.507,21.927 -10.182,8.963 -19.086,11.675 -42.124,12.829 -14.102,0.70687 -26.42,2.845 -36.557,6.3458 -13.693,4.7287 -30.737,20.046 -36.723,33.003 -3.4347,7.434 -10.251,27.387 -10.251,30.008 0,0.74555 -1.3401,5.924 -2.978,11.508 -1.6379,5.5836 -3.8433,13.752 -4.901,18.152 -1.0576,4.4 -3.5931,13.625 -5.6343,20.5 -2.0413,6.875 -4.2733,14.975 -4.96,18 -1.392,6.1322 -3.9482,15.185 -6.2116,22 -2.137,6.434 -11.33,39.688 -12.388,44.812 -0.4897,2.3715 -1.5954,6.3886 -2.4572,8.9269 -0.8617,2.5382 -3.3741,11.398 -5.5831,19.688 -2.209,8.2902 -4.4324,16.423 -4.9408,18.073 -0.5084,1.65 -2.2781,8.175 -3.9327,14.5 -1.6545,6.325 -4.0846,15.1 -5.4002,19.5 -4.6755,15.637 -7.9104,27.055 -8.7827,31 -0.8344,3.7738 -1.7778,7.0395 -8.3773,29 -1.4876,4.95 -3.3128,11.7 -4.0559,15 -0.7432,3.3 -2.2668,9.15 -3.3857,13 -1.1189,3.85 -2.509,9.3997 -3.0891,12.333 -0.5802,2.933 -2.1545,8.783 -3.4985,13 -1.3441,4.2171 -3.1967,10.142 -4.1169,13.168 -0.9202,3.026 -1.9822,5.95 -2.36,6.5 -0.3778,0.55 -1.2454,2.8 -1.9281,5 -0.6828,2.2 -2.259,5.8 -3.5027,8 -1.2438,2.2 -2.6064,5.125 -3.0281,6.5 -0.4217,1.375 -2.3663,4.975 -4.3215,8 -1.9551,3.025 -4.2671,6.8606 -5.1377,8.5236 -4.0302,7.6981 -22.689,28.755 -34.984,39.48 -12.802,11.167 -28.254,20.873 -43.572,27.368 -4.3853,1.8594 -9.9983,4.3066 -12.473,5.4382 -7.404,3.3853 -31.764,9.2679 -43,10.384 -17.052,1.6938 -406.1,1.9516 -427,0.283 z"
         id="path5"
         style="fill:#fe640b;fill-opacity:1;stroke:none" />
      <path
         d="m 915.63,1228 c -1.375,-0.485 -5.875,-1.872 -10,-3.0823 -10.925,-3.2055 -12.673,-3.9487 -21.5,-9.1387 -5.4246,-3.1896 -10.743,-7.547 -16.52,-13.536 -10.462,-10.846 -16.661,-22.356 -20.602,-38.256 -2.36,-9.5207 -2.5433,-11.73 -2.1155,-25.5 0.4166,-13.409 0.803,-16.071 3.4945,-24.076 3.9942,-11.879 4.9022,-13.799 10.452,-22.101 7.3595,-11.009 19.532,-22.016 30.698,-27.757 10.277,-5.2838 15.453,-7.0047 27.593,-9.1732 16.553,-2.9566 35.716,-0.5601 52,6.503 15.161,6.5759 33.585,25.055 40.408,40.528 5.5838,12.663 8.0922,25.022 8.0922,39.871 0,13.948 -1.0135,19.72 -5.5804,31.78 -5.5612,14.686 -18.703,31.008 -32.053,39.81 -7.556,4.9819 -22.122,11.188 -30.366,12.938 -6.4646,1.3722 -31.044,2.2324 -34,1.1899 z"
         id="path6"
         style="fill:#fe640b;fill-opacity:1;stroke:none" />
      <path
         d="m 616.95,1227.9 c -26.881,-2.3479 -52.938,-19.414 -64.569,-42.29 -13.448,-26.45 -14.815,-51.937 -4.1979,-78.273 4.0174,-9.9651 6.3094,-13.688 14.11,-22.921 9.1353,-10.812 17.774,-17.44 28.517,-21.878 14.762,-6.099 15.887,-6.4526 24.114,-7.5802 10.394,-1.4248 15.588,-1.3476 26.796,0.3982 11.836,1.8434 16.455,3.2942 28.205,8.8593 7.5298,3.5662 11.041,6.0225 17.582,12.299 7.5567,7.2513 14.567,16.369 18.462,24.014 0.87946,1.7259 3.0526,7.3509 4.8292,12.5 3.0037,8.7056 3.2578,10.48 3.6234,25.294 0.31,12.56 0.0353,17.427 -1.2982,23 -2.2491,9.3989 -4.9641,17.442 -6.3584,18.836 -0.62281,0.6228 -1.1334,1.6049 -1.1348,2.1824 -0.003,1.2517 -6.3521,10.73 -10.812,16.141 -9.57,11.61 -28.633,23.307 -44.648,27.396 -8.9429,2.2835 -21.486,3.0468 -33.221,2.0218 z"
         id="path7"
         style="fill:#fe640b;fill-opacity:1;stroke:none" />
    </g>
  </g>
</svg>
